# xmcd
#
# Track frame offsets:
#	150
#	11244
#	22342
#	34312
#	44579
#	57532
#	71062
#	81992
#	95822
#	107432
#	116494
#	125621
#	140353
#	148062
#	157230
#	170462
#	184799
#	196383
#	207918
#	224573
#	236463
#	250452
#	263073
#	268975
#	280243
#	292666
#	307229
#
# Disc length: 4258 seconds
#
# Revision: 0
# Processed by: cddbd v1.5.2PL0 Copyright (c) Steve Scherf et al.
# Submitted via: EasyCDDAExtractor 10.0.2.1
#
DISCID=b910a01b
DTITLE=Various Artist - Rautalanka Cocktail
DYEAR=1900
DGENRE=
TTITLE0=Köyhien Ystävät - 7-ender
TTITLE1=Agents - Jätkän Twist
TTITLE2=Agents - Snake Shake - Kuningaskobra
TTITLE3=The New Strangers - Muukalainen Rannalla
TTITLE4=The New Strangers - Musta Hevonen
TTITLE5=Rami Hammar and The Riders - Ballaadi Kanuunasta
TTITLE6=Rami Hammar and The Riders - Oodi Varjoille
TTITLE7=The Mustangs - Blue Beguine
TTITLE8=The Mustangs - Pistoleros
TTITLE9=Laika and The Cosmonauts - Surfs You Right
TTITLE10=Laika and The Cosmonauts - C'on Do The Laika
TTITLE11=Toni Rossi and Sinitaivas - Algeciras
TTITLE12=Badding Rockers - Rantarata
TTITLE13=Badding Rockers - Venturette
TTITLE14=A. Aallon Rytmiorkesteri - Buona Sera
TTITLE15=A. Aallon Rytmiorkesteri - Summer Love -59
TTITLE16=Taivalkunta Beat - Kirkkonummen Radalla
TTITLE17=The Charades - Bam Bam Bam
TTITLE18=The Charades - Hana No Kubikazari
TTITLE19=The Mosriders - Song Of Delilah
TTITLE20=The Twangers - Oo! What You Do To Me
TTITLE21=Pekka Tiilikainen and Beatmakers - Maailman Valot
TTITLE22=Pekka Tiilikainen and Beatmakers - Mörri-Möykky Twist
TTITLE23=Väliaikainen - Heilin Heilini Sinisistä Silmistä
TTITLE24=The Regents - Hot Line
TTITLE25=Happy Times - Walk Like An Egyptian
TTITLE26=Happy Times - Summer Kisses, Winter Tears
EXTD=
EXTT0=
EXTT1=
EXTT2=
EXTT3=
EXTT4=
EXTT5=
EXTT6=
EXTT7=
EXTT8=
EXTT9=
EXTT10=
EXTT11=
EXTT12=
EXTT13=
EXTT14=
EXTT15=
EXTT16=
EXTT17=
EXTT18=
EXTT19=
EXTT20=
EXTT21=
EXTT22=
EXTT23=
EXTT24=
EXTT25=
EXTT26=
PLAYORDER=
